<mxfile host="app.diagrams.net" modified="2024-07-22T19:47:50.663Z" agent="Mozilla/5.0 (Windows NT 10.0; Win64; x64) AppleWebKit/537.36 (KHTML, like Gecko) Chrome/126.0.0.0 Safari/537.36" etag="kn2bbUIz4C0ZS5kPudJI" version="24.7.3" type="device" pages="9">
  <diagram name="SRP_violate" id="Ece3g4PEjilYKpCektka">
    <mxGraphModel dx="1050" dy="557" grid="1" gridSize="10" guides="1" tooltips="1" connect="1" arrows="1" fold="1" page="1" pageScale="1" pageWidth="850" pageHeight="1100" math="0" shadow="0">
      <root>
        <mxCell id="0" />
        <mxCell id="1" parent="0" />
        <mxCell id="jXulP8gIbv40l5FABgdT-10" value="&lt;p style=&quot;margin:0px;margin-top:4px;text-align:center;&quot;&gt;&lt;b&gt;Dog&lt;/b&gt;&lt;/p&gt;&lt;hr size=&quot;1&quot; style=&quot;border-style:solid;&quot;&gt;&lt;p style=&quot;margin:0px;margin-left:4px;&quot;&gt;+ name: String&lt;br&gt;+ hours: Int&lt;br&gt;+ costs: Int&lt;br&gt;+ toBePaidByOwner: Int&lt;/p&gt;&lt;hr size=&quot;1&quot; style=&quot;border-style:solid;&quot;&gt;&lt;p style=&quot;margin:0px;margin-left:4px;&quot;&gt;+ registerDog(String): Unit&lt;br&gt;+ registerHours(String, Int): Unit&lt;br&gt;+ calculateCost(String, Boolean): Unit&lt;/p&gt;" style="verticalAlign=top;align=left;overflow=fill;html=1;whiteSpace=wrap;" vertex="1" parent="1">
          <mxGeometry x="410" y="200" width="230" height="160" as="geometry" />
        </mxCell>
        <mxCell id="jXulP8gIbv40l5FABgdT-16" value="&lt;i&gt;&amp;lt;&amp;lt;Actor&amp;gt;&amp;gt;&lt;br&gt;&lt;/i&gt;&lt;b&gt;Onboarding&lt;br&gt;Department&lt;/b&gt;" style="html=1;whiteSpace=wrap;" vertex="1" parent="1">
          <mxGeometry x="170" y="200" width="110" height="50" as="geometry" />
        </mxCell>
        <mxCell id="jXulP8gIbv40l5FABgdT-17" value="&lt;i&gt;&amp;lt;&amp;lt;Actor&amp;gt;&amp;gt;&lt;br&gt;&lt;/i&gt;&lt;b&gt;Financial&lt;br&gt;Department&lt;/b&gt;" style="html=1;whiteSpace=wrap;" vertex="1" parent="1">
          <mxGeometry x="170" y="310" width="110" height="50" as="geometry" />
        </mxCell>
        <mxCell id="jXulP8gIbv40l5FABgdT-18" value="" style="endArrow=none;html=1;rounded=0;exitX=1;exitY=0.5;exitDx=0;exitDy=0;entryX=0.003;entryY=0.361;entryDx=0;entryDy=0;entryPerimeter=0;endFill=0;" edge="1" parent="1" source="jXulP8gIbv40l5FABgdT-16" target="jXulP8gIbv40l5FABgdT-10">
          <mxGeometry width="50" height="50" relative="1" as="geometry">
            <mxPoint x="570" y="320" as="sourcePoint" />
            <mxPoint x="620" y="270" as="targetPoint" />
          </mxGeometry>
        </mxCell>
        <mxCell id="jXulP8gIbv40l5FABgdT-20" value="" style="endArrow=none;html=1;rounded=0;exitX=1;exitY=0.5;exitDx=0;exitDy=0;entryX=0.01;entryY=0.656;entryDx=0;entryDy=0;entryPerimeter=0;" edge="1" parent="1" source="jXulP8gIbv40l5FABgdT-17" target="jXulP8gIbv40l5FABgdT-10">
          <mxGeometry width="50" height="50" relative="1" as="geometry">
            <mxPoint x="570" y="320" as="sourcePoint" />
            <mxPoint x="620" y="270" as="targetPoint" />
          </mxGeometry>
        </mxCell>
      </root>
    </mxGraphModel>
  </diagram>
  <diagram name="SRP_solve" id="cfGEVCgQAGRlwEjZnTyY">
    <mxGraphModel dx="1050" dy="557" grid="1" gridSize="10" guides="1" tooltips="1" connect="1" arrows="1" fold="1" page="1" pageScale="1" pageWidth="850" pageHeight="1100" math="0" shadow="0">
      <root>
        <mxCell id="pzAmOnPFSolpzn0LZRgF-0" />
        <mxCell id="pzAmOnPFSolpzn0LZRgF-1" parent="pzAmOnPFSolpzn0LZRgF-0" />
        <mxCell id="70IJLuKvzxLYdZvB37A--0" value="&lt;p style=&quot;margin:0px;margin-top:4px;text-align:center;&quot;&gt;&lt;b&gt;Dog&lt;/b&gt;&lt;/p&gt;&lt;hr size=&quot;1&quot; style=&quot;border-style:solid;&quot;&gt;&lt;p style=&quot;margin:0px;margin-left:4px;&quot;&gt;+ name: String&lt;br&gt;+ hours: Int&lt;br&gt;+ costs: Int&lt;br&gt;+ toBePaidByOwner: Int&lt;/p&gt;&lt;p style=&quot;margin:0px;margin-left:4px;&quot;&gt;&lt;br&gt;&lt;/p&gt;" style="verticalAlign=top;align=left;overflow=fill;html=1;whiteSpace=wrap;" vertex="1" parent="pzAmOnPFSolpzn0LZRgF-1">
          <mxGeometry x="120" y="200" width="160" height="100" as="geometry" />
        </mxCell>
        <mxCell id="0p7M7VROcWFmovWajA4G-1" style="edgeStyle=orthogonalEdgeStyle;rounded=0;orthogonalLoop=1;jettySize=auto;html=1;exitX=0;exitY=0.5;exitDx=0;exitDy=0;entryX=1;entryY=0.5;entryDx=0;entryDy=0;endArrow=none;endFill=0;" edge="1" parent="pzAmOnPFSolpzn0LZRgF-1" source="70IJLuKvzxLYdZvB37A--1" target="70IJLuKvzxLYdZvB37A--5">
          <mxGeometry relative="1" as="geometry" />
        </mxCell>
        <mxCell id="70IJLuKvzxLYdZvB37A--1" value="&lt;i&gt;&amp;lt;&amp;lt;Actor&amp;gt;&amp;gt;&lt;br&gt;&lt;/i&gt;&lt;b&gt;Onboarding&lt;br&gt;Department&lt;/b&gt;" style="html=1;whiteSpace=wrap;" vertex="1" parent="pzAmOnPFSolpzn0LZRgF-1">
          <mxGeometry x="600" y="170" width="110" height="50" as="geometry" />
        </mxCell>
        <mxCell id="0p7M7VROcWFmovWajA4G-2" style="edgeStyle=orthogonalEdgeStyle;rounded=0;orthogonalLoop=1;jettySize=auto;html=1;exitX=0;exitY=0.5;exitDx=0;exitDy=0;entryX=1;entryY=0.5;entryDx=0;entryDy=0;endArrow=none;endFill=0;" edge="1" parent="pzAmOnPFSolpzn0LZRgF-1" source="70IJLuKvzxLYdZvB37A--2" target="0p7M7VROcWFmovWajA4G-0">
          <mxGeometry relative="1" as="geometry" />
        </mxCell>
        <mxCell id="70IJLuKvzxLYdZvB37A--2" value="&lt;i&gt;&amp;lt;&amp;lt;Actor&amp;gt;&amp;gt;&lt;br&gt;&lt;/i&gt;&lt;b&gt;Financial&lt;br&gt;Department&lt;/b&gt;" style="html=1;whiteSpace=wrap;" vertex="1" parent="pzAmOnPFSolpzn0LZRgF-1">
          <mxGeometry x="600" y="285" width="110" height="50" as="geometry" />
        </mxCell>
        <mxCell id="70IJLuKvzxLYdZvB37A--5" value="&lt;p style=&quot;margin:0px;margin-top:4px;text-align:center;&quot;&gt;&lt;b&gt;DogRegister&lt;/b&gt;&lt;/p&gt;&lt;hr size=&quot;1&quot; style=&quot;border-style:solid;&quot;&gt;&lt;p style=&quot;margin:0px;margin-left:4px;&quot;&gt;&lt;/p&gt;&lt;p style=&quot;margin:0px;margin-left:4px;&quot;&gt;+ registerDog(String): Unit&lt;br&gt;+ registerHours(String,Int): Unit&lt;/p&gt;" style="verticalAlign=top;align=left;overflow=fill;html=1;whiteSpace=wrap;" vertex="1" parent="pzAmOnPFSolpzn0LZRgF-1">
          <mxGeometry x="320" y="160" width="220" height="70" as="geometry" />
        </mxCell>
        <mxCell id="0p7M7VROcWFmovWajA4G-0" value="&lt;p style=&quot;margin:0px;margin-top:4px;text-align:center;&quot;&gt;&lt;b&gt;DogCalculateCosts&lt;/b&gt;&lt;/p&gt;&lt;hr size=&quot;1&quot; style=&quot;border-style:solid;&quot;&gt;&lt;p style=&quot;margin:0px;margin-left:4px;&quot;&gt;&lt;/p&gt;&lt;p style=&quot;margin:0px;margin-left:4px;&quot;&gt;+ calculateCost(String, Boolean): Unit&lt;br&gt;&lt;/p&gt;" style="verticalAlign=top;align=left;overflow=fill;html=1;whiteSpace=wrap;" vertex="1" parent="pzAmOnPFSolpzn0LZRgF-1">
          <mxGeometry x="320" y="280" width="220" height="60" as="geometry" />
        </mxCell>
        <mxCell id="0p7M7VROcWFmovWajA4G-4" value="" style="endArrow=open;endSize=12;dashed=1;html=1;rounded=0;exitX=0;exitY=0.5;exitDx=0;exitDy=0;entryX=1;entryY=0.75;entryDx=0;entryDy=0;" edge="1" parent="pzAmOnPFSolpzn0LZRgF-1" source="0p7M7VROcWFmovWajA4G-0" target="70IJLuKvzxLYdZvB37A--0">
          <mxGeometry width="160" relative="1" as="geometry">
            <mxPoint x="400" y="480" as="sourcePoint" />
            <mxPoint x="590" y="560" as="targetPoint" />
          </mxGeometry>
        </mxCell>
        <mxCell id="0p7M7VROcWFmovWajA4G-5" value="" style="endArrow=open;endSize=12;dashed=1;html=1;rounded=0;exitX=0;exitY=0.5;exitDx=0;exitDy=0;entryX=1;entryY=0.25;entryDx=0;entryDy=0;" edge="1" parent="pzAmOnPFSolpzn0LZRgF-1" source="70IJLuKvzxLYdZvB37A--5" target="70IJLuKvzxLYdZvB37A--0">
          <mxGeometry width="160" relative="1" as="geometry">
            <mxPoint x="330" y="320" as="sourcePoint" />
            <mxPoint x="290" y="285" as="targetPoint" />
          </mxGeometry>
        </mxCell>
      </root>
    </mxGraphModel>
  </diagram>
  <diagram id="QrZdFscfbiCPcmAFxrLg" name="OCP">
    <mxGraphModel dx="1050" dy="557" grid="1" gridSize="10" guides="1" tooltips="1" connect="1" arrows="1" fold="1" page="1" pageScale="1" pageWidth="850" pageHeight="1100" math="0" shadow="0">
      <root>
        <mxCell id="0" />
        <mxCell id="1" parent="0" />
        <mxCell id="BYtT5YrAemKrsODO5NE--1" value="Dog" style="html=1;whiteSpace=wrap;" vertex="1" parent="1">
          <mxGeometry x="620" y="330" width="110" height="60" as="geometry" />
        </mxCell>
        <mxCell id="BYtT5YrAemKrsODO5NE--3" value="«interface»&lt;br&gt;&lt;b&gt;DogDaycareDaily&lt;/b&gt;&lt;div&gt;&lt;b&gt;ReportGenerator&lt;/b&gt;&lt;br&gt;&lt;/div&gt;" style="html=1;whiteSpace=wrap;" vertex="1" parent="1">
          <mxGeometry x="470" y="320" width="110" height="80" as="geometry" />
        </mxCell>
        <mxCell id="BYtT5YrAemKrsODO5NE--6" value="FullDailyReport" style="html=1;whiteSpace=wrap;" vertex="1" parent="1">
          <mxGeometry x="90" y="350" width="110" height="60" as="geometry" />
        </mxCell>
        <mxCell id="BYtT5YrAemKrsODO5NE--7" value="FullDailyModel" style="html=1;whiteSpace=wrap;" vertex="1" parent="1">
          <mxGeometry x="90" y="440" width="110" height="60" as="geometry" />
        </mxCell>
        <mxCell id="BYtT5YrAemKrsODO5NE--9" value="&lt;div&gt;FullReportView&lt;/div&gt;" style="html=1;whiteSpace=wrap;" vertex="1" parent="1">
          <mxGeometry x="90" y="520" width="110" height="80" as="geometry" />
        </mxCell>
        <mxCell id="BYtT5YrAemKrsODO5NE--11" value="«interface»&lt;br&gt;&lt;b&gt;DogDaycare&lt;/b&gt;&lt;div&gt;&lt;b&gt;DailyReport&lt;/b&gt;&lt;/div&gt;" style="html=1;whiteSpace=wrap;" vertex="1" parent="1">
          <mxGeometry x="470" y="190" width="110" height="80" as="geometry" />
        </mxCell>
        <mxCell id="BYtT5YrAemKrsODO5NE--12" value="Database" style="html=1;whiteSpace=wrap;" vertex="1" parent="1">
          <mxGeometry x="690" y="450" width="110" height="60" as="geometry" />
        </mxCell>
        <mxCell id="BYtT5YrAemKrsODO5NE--16" value="&lt;pre class=&quot;graf graf--pre&quot;&gt;&lt;p style=&quot;&quot;&gt;&lt;font face=&quot;Helvetica&quot;&gt;DogDaycareDaily&lt;br&gt;&lt;/font&gt;&lt;font face=&quot;Helvetica&quot;&gt;ReportGeneratorImpl&lt;/font&gt;&lt;/p&gt;&lt;/pre&gt;" style="html=1;whiteSpace=wrap;align=center;" vertex="1" parent="1">
          <mxGeometry x="490" y="450" width="160" height="60" as="geometry" />
        </mxCell>
        <mxCell id="BYtT5YrAemKrsODO5NE--21" value="Compact&lt;br&gt;DailyReport" style="html=1;whiteSpace=wrap;" vertex="1" parent="1">
          <mxGeometry x="260" y="350" width="110" height="60" as="geometry" />
        </mxCell>
        <mxCell id="BYtT5YrAemKrsODO5NE--22" value="Compact&lt;br&gt;DailyModel" style="html=1;whiteSpace=wrap;" vertex="1" parent="1">
          <mxGeometry x="260" y="440" width="110" height="60" as="geometry" />
        </mxCell>
        <mxCell id="BYtT5YrAemKrsODO5NE--24" value="&lt;div&gt;Compact&lt;br&gt;ReportView&lt;/div&gt;" style="html=1;whiteSpace=wrap;" vertex="1" parent="1">
          <mxGeometry x="260" y="520" width="110" height="80" as="geometry" />
        </mxCell>
        <mxCell id="BYtT5YrAemKrsODO5NE--30" value="" style="endArrow=block;dashed=1;endFill=0;endSize=12;html=1;rounded=0;exitX=0.5;exitY=0;exitDx=0;exitDy=0;entryX=0;entryY=0.25;entryDx=0;entryDy=0;" edge="1" parent="1" source="BYtT5YrAemKrsODO5NE--6" target="BYtT5YrAemKrsODO5NE--11">
          <mxGeometry width="160" relative="1" as="geometry">
            <mxPoint x="340" y="410" as="sourcePoint" />
            <mxPoint x="500" y="410" as="targetPoint" />
            <Array as="points">
              <mxPoint x="145" y="210" />
              <mxPoint x="240" y="210" />
            </Array>
          </mxGeometry>
        </mxCell>
        <mxCell id="BYtT5YrAemKrsODO5NE--31" value="" style="endArrow=block;dashed=1;endFill=0;endSize=12;html=1;rounded=0;exitX=0.5;exitY=0;exitDx=0;exitDy=0;entryX=0;entryY=0.638;entryDx=0;entryDy=0;entryPerimeter=0;" edge="1" parent="1" source="BYtT5YrAemKrsODO5NE--21" target="BYtT5YrAemKrsODO5NE--11">
          <mxGeometry width="160" relative="1" as="geometry">
            <mxPoint x="155" y="360" as="sourcePoint" />
            <mxPoint x="440" y="240" as="targetPoint" />
            <Array as="points">
              <mxPoint x="315" y="280" />
              <mxPoint x="315" y="240" />
            </Array>
          </mxGeometry>
        </mxCell>
        <mxCell id="BYtT5YrAemKrsODO5NE--32" value="" style="endArrow=open;endSize=12;dashed=1;html=1;rounded=0;exitX=1;exitY=0.5;exitDx=0;exitDy=0;entryX=1;entryY=0.5;entryDx=0;entryDy=0;" edge="1" parent="1" source="BYtT5YrAemKrsODO5NE--9" target="BYtT5YrAemKrsODO5NE--6">
          <mxGeometry width="160" relative="1" as="geometry">
            <mxPoint x="440" y="620" as="sourcePoint" />
            <mxPoint x="600" y="620" as="targetPoint" />
            <Array as="points">
              <mxPoint x="230" y="560" />
              <mxPoint x="230" y="380" />
            </Array>
          </mxGeometry>
        </mxCell>
        <mxCell id="BYtT5YrAemKrsODO5NE--33" value="" style="endArrow=open;endSize=12;dashed=1;html=1;rounded=0;exitX=1;exitY=0.5;exitDx=0;exitDy=0;entryX=1;entryY=0.5;entryDx=0;entryDy=0;" edge="1" parent="1" source="BYtT5YrAemKrsODO5NE--24" target="BYtT5YrAemKrsODO5NE--21">
          <mxGeometry width="160" relative="1" as="geometry">
            <mxPoint x="430" y="400" as="sourcePoint" />
            <mxPoint x="390" y="350" as="targetPoint" />
            <Array as="points">
              <mxPoint x="400" y="560" />
              <mxPoint x="400" y="380" />
            </Array>
          </mxGeometry>
        </mxCell>
        <mxCell id="mIPnj5pzaUdvCl37BDLr-1" value="" style="endArrow=open;endSize=12;dashed=1;html=1;rounded=0;exitX=0.5;exitY=0;exitDx=0;exitDy=0;entryX=0.5;entryY=1;entryDx=0;entryDy=0;" edge="1" parent="1" source="BYtT5YrAemKrsODO5NE--22" target="BYtT5YrAemKrsODO5NE--21">
          <mxGeometry width="160" relative="1" as="geometry">
            <mxPoint x="450" y="630" as="sourcePoint" />
            <mxPoint x="610" y="630" as="targetPoint" />
          </mxGeometry>
        </mxCell>
        <mxCell id="mIPnj5pzaUdvCl37BDLr-2" value="" style="endArrow=open;endSize=12;dashed=1;html=1;rounded=0;exitX=0.5;exitY=1;exitDx=0;exitDy=0;entryX=0.5;entryY=0;entryDx=0;entryDy=0;" edge="1" parent="1" source="BYtT5YrAemKrsODO5NE--22" target="BYtT5YrAemKrsODO5NE--24">
          <mxGeometry width="160" relative="1" as="geometry">
            <mxPoint x="325" y="450" as="sourcePoint" />
            <mxPoint x="325" y="420" as="targetPoint" />
          </mxGeometry>
        </mxCell>
        <mxCell id="mIPnj5pzaUdvCl37BDLr-4" value="" style="endArrow=open;endSize=12;dashed=1;html=1;rounded=0;exitX=0.5;exitY=0;exitDx=0;exitDy=0;entryX=0.5;entryY=1;entryDx=0;entryDy=0;" edge="1" parent="1">
          <mxGeometry width="160" relative="1" as="geometry">
            <mxPoint x="144.5" y="440" as="sourcePoint" />
            <mxPoint x="144.5" y="410" as="targetPoint" />
          </mxGeometry>
        </mxCell>
        <mxCell id="mIPnj5pzaUdvCl37BDLr-5" value="" style="endArrow=open;endSize=12;dashed=1;html=1;rounded=0;exitX=0.5;exitY=1;exitDx=0;exitDy=0;entryX=0.5;entryY=0;entryDx=0;entryDy=0;" edge="1" parent="1" source="BYtT5YrAemKrsODO5NE--7" target="BYtT5YrAemKrsODO5NE--9">
          <mxGeometry width="160" relative="1" as="geometry">
            <mxPoint x="325" y="510" as="sourcePoint" />
            <mxPoint x="325" y="530" as="targetPoint" />
          </mxGeometry>
        </mxCell>
        <mxCell id="mIPnj5pzaUdvCl37BDLr-6" value="" style="endArrow=open;endSize=12;dashed=1;html=1;rounded=0;exitX=0.5;exitY=1;exitDx=0;exitDy=0;entryX=0.5;entryY=0;entryDx=0;entryDy=0;" edge="1" parent="1" source="BYtT5YrAemKrsODO5NE--11" target="BYtT5YrAemKrsODO5NE--3">
          <mxGeometry width="160" relative="1" as="geometry">
            <mxPoint x="325" y="450" as="sourcePoint" />
            <mxPoint x="325" y="420" as="targetPoint" />
          </mxGeometry>
        </mxCell>
        <mxCell id="mIPnj5pzaUdvCl37BDLr-7" value="" style="endArrow=open;endSize=12;dashed=1;html=1;rounded=0;exitX=1;exitY=0.5;exitDx=0;exitDy=0;entryX=0;entryY=0.5;entryDx=0;entryDy=0;" edge="1" parent="1" source="BYtT5YrAemKrsODO5NE--3" target="BYtT5YrAemKrsODO5NE--1">
          <mxGeometry width="160" relative="1" as="geometry">
            <mxPoint x="535" y="280" as="sourcePoint" />
            <mxPoint x="535" y="330" as="targetPoint" />
          </mxGeometry>
        </mxCell>
        <mxCell id="mIPnj5pzaUdvCl37BDLr-8" value="" style="endArrow=open;endSize=12;dashed=1;html=1;rounded=0;exitX=0.685;exitY=-0.043;exitDx=0;exitDy=0;entryX=0.5;entryY=1;entryDx=0;entryDy=0;exitPerimeter=0;" edge="1" parent="1" source="BYtT5YrAemKrsODO5NE--16" target="BYtT5YrAemKrsODO5NE--1">
          <mxGeometry width="160" relative="1" as="geometry">
            <mxPoint x="545" y="290" as="sourcePoint" />
            <mxPoint x="545" y="340" as="targetPoint" />
            <Array as="points">
              <mxPoint x="600" y="420" />
              <mxPoint x="675" y="420" />
            </Array>
          </mxGeometry>
        </mxCell>
        <mxCell id="mIPnj5pzaUdvCl37BDLr-9" value="" style="endArrow=block;dashed=1;endFill=0;endSize=12;html=1;rounded=0;exitX=0.195;exitY=-0.003;exitDx=0;exitDy=0;exitPerimeter=0;" edge="1" parent="1" source="BYtT5YrAemKrsODO5NE--16">
          <mxGeometry width="160" relative="1" as="geometry">
            <mxPoint x="325" y="360" as="sourcePoint" />
            <mxPoint x="520" y="400" as="targetPoint" />
            <Array as="points" />
          </mxGeometry>
        </mxCell>
        <mxCell id="mIPnj5pzaUdvCl37BDLr-11" value="" style="endArrow=open;endSize=12;dashed=1;html=1;rounded=0;exitX=1;exitY=0.5;exitDx=0;exitDy=0;entryX=0;entryY=0.5;entryDx=0;entryDy=0;" edge="1" parent="1" source="BYtT5YrAemKrsODO5NE--16" target="BYtT5YrAemKrsODO5NE--12">
          <mxGeometry width="160" relative="1" as="geometry">
            <mxPoint x="590" y="370" as="sourcePoint" />
            <mxPoint x="630" y="370" as="targetPoint" />
          </mxGeometry>
        </mxCell>
      </root>
    </mxGraphModel>
  </diagram>
  <diagram id="VUFV8CyjjetcXDpdAsWZ" name="LSP_violate">
    <mxGraphModel dx="1050" dy="557" grid="1" gridSize="10" guides="1" tooltips="1" connect="1" arrows="1" fold="1" page="1" pageScale="1" pageWidth="850" pageHeight="1100" math="0" shadow="0">
      <root>
        <mxCell id="0" />
        <mxCell id="1" parent="0" />
        <mxCell id="5VEch0y9utXyetqXmuZe-2" value="&lt;p style=&quot;margin:0px;margin-top:4px;text-align:center;&quot;&gt;&lt;b&gt;CostReport&lt;/b&gt;&lt;/p&gt;&lt;hr size=&quot;1&quot; style=&quot;border-style:solid;&quot;&gt;&lt;p style=&quot;margin:0px;margin-left:4px;&quot;&gt;&lt;span style=&quot;background-color: initial;&quot;&gt;+ print(): Unit&lt;/span&gt;&lt;br&gt;&lt;/p&gt;" style="verticalAlign=top;align=left;overflow=fill;html=1;whiteSpace=wrap;" vertex="1" parent="1">
          <mxGeometry x="230" y="180" width="160" height="60" as="geometry" />
        </mxCell>
        <mxCell id="5VEch0y9utXyetqXmuZe-3" value="&lt;p style=&quot;margin:0px;margin-top:4px;text-align:center;&quot;&gt;&lt;b&gt;CostType&lt;/b&gt;&lt;/p&gt;&lt;hr size=&quot;1&quot; style=&quot;border-style:solid;&quot;&gt;&lt;div style=&quot;height:2px;&quot;&gt;&lt;/div&gt;" style="verticalAlign=top;align=left;overflow=fill;html=1;whiteSpace=wrap;" vertex="1" parent="1">
          <mxGeometry x="210" y="500" width="140" height="60" as="geometry" />
        </mxCell>
        <mxCell id="5VEch0y9utXyetqXmuZe-5" value="&lt;p style=&quot;margin:0px;margin-top:4px;text-align:center;&quot;&gt;&lt;i&gt;&amp;lt;&amp;lt;Interface&amp;gt;&amp;gt;&lt;/i&gt;&lt;br&gt;&lt;b&gt;Calculator&lt;/b&gt;&lt;/p&gt;&lt;hr size=&quot;1&quot; style=&quot;border-style:solid;&quot;&gt;&lt;p style=&quot;margin:0px;margin-left:4px;&quot;&gt;+ type: CostType&lt;br&gt;&lt;/p&gt;&lt;hr size=&quot;1&quot; style=&quot;border-style:solid;&quot;&gt;&lt;p style=&quot;margin:0px;margin-left:4px;&quot;&gt;+ getCosts(Int): Int&lt;br&gt;&lt;/p&gt;" style="verticalAlign=top;align=left;overflow=fill;html=1;whiteSpace=wrap;" vertex="1" parent="1">
          <mxGeometry x="320" y="320" width="190" height="100" as="geometry" />
        </mxCell>
        <mxCell id="5VEch0y9utXyetqXmuZe-7" value="&lt;b&gt;BoardCalculator&lt;/b&gt;" style="html=1;whiteSpace=wrap;" vertex="1" parent="1">
          <mxGeometry x="600" y="300" width="110" height="50" as="geometry" />
        </mxCell>
        <mxCell id="5VEch0y9utXyetqXmuZe-8" value="&lt;b&gt;BoardAndTrain&lt;br&gt;Calculator&lt;/b&gt;" style="html=1;whiteSpace=wrap;" vertex="1" parent="1">
          <mxGeometry x="600" y="381" width="110" height="50" as="geometry" />
        </mxCell>
        <mxCell id="5VEch0y9utXyetqXmuZe-10" value="&lt;p style=&quot;margin:0px;margin-top:4px;text-align:center;&quot;&gt;&lt;b&gt;DaycareCalculator&lt;/b&gt;&lt;/p&gt;&lt;hr size=&quot;1&quot; style=&quot;border-style:solid;&quot;&gt;&lt;p style=&quot;margin:0px;margin-left:4px;&quot;&gt;+ type: CostType&lt;br&gt;&lt;/p&gt;&lt;hr size=&quot;1&quot; style=&quot;border-style:solid;&quot;&gt;&lt;p style=&quot;margin:0px;margin-left:4px;&quot;&gt;+ getCosts(Int): Int&lt;br&gt;&lt;/p&gt;" style="verticalAlign=top;align=left;overflow=fill;html=1;whiteSpace=wrap;" vertex="1" parent="1">
          <mxGeometry x="70" y="320" width="190" height="120" as="geometry" />
        </mxCell>
        <mxCell id="5VEch0y9utXyetqXmuZe-11" style="edgeStyle=orthogonalEdgeStyle;rounded=0;orthogonalLoop=1;jettySize=auto;html=1;exitX=0.5;exitY=1;exitDx=0;exitDy=0;" edge="1" parent="1" source="5VEch0y9utXyetqXmuZe-10" target="5VEch0y9utXyetqXmuZe-10">
          <mxGeometry relative="1" as="geometry" />
        </mxCell>
        <mxCell id="5VEch0y9utXyetqXmuZe-12" value="+ DogSize" style="text;strokeColor=none;fillColor=none;align=left;verticalAlign=top;spacingLeft=4;spacingRight=4;overflow=hidden;rotatable=0;points=[[0,0.5],[1,0.5]];portConstraint=eastwest;whiteSpace=wrap;html=1;" vertex="1" parent="1">
          <mxGeometry x="70" y="410" width="100" height="26" as="geometry" />
        </mxCell>
        <mxCell id="5VEch0y9utXyetqXmuZe-13" value="" style="line;strokeWidth=1;fillColor=none;align=left;verticalAlign=middle;spacingTop=-1;spacingLeft=3;spacingRight=3;rotatable=0;labelPosition=right;points=[];portConstraint=eastwest;strokeColor=inherit;" vertex="1" parent="1">
          <mxGeometry x="70" y="402" width="190" height="8" as="geometry" />
        </mxCell>
        <mxCell id="5VEch0y9utXyetqXmuZe-16" value="" style="endArrow=open;endSize=12;dashed=1;html=1;rounded=0;exitX=0.75;exitY=1;exitDx=0;exitDy=0;entryX=0.25;entryY=0;entryDx=0;entryDy=0;" edge="1" parent="1" source="5VEch0y9utXyetqXmuZe-2" target="5VEch0y9utXyetqXmuZe-5">
          <mxGeometry width="160" relative="1" as="geometry">
            <mxPoint x="340" y="290" as="sourcePoint" />
            <mxPoint x="500" y="290" as="targetPoint" />
          </mxGeometry>
        </mxCell>
        <mxCell id="5VEch0y9utXyetqXmuZe-17" value="" style="endArrow=open;endSize=12;dashed=1;html=1;rounded=0;exitX=0.25;exitY=1;exitDx=0;exitDy=0;" edge="1" parent="1" source="5VEch0y9utXyetqXmuZe-2" target="5VEch0y9utXyetqXmuZe-10">
          <mxGeometry width="160" relative="1" as="geometry">
            <mxPoint x="360" y="250" as="sourcePoint" />
            <mxPoint x="378" y="330" as="targetPoint" />
          </mxGeometry>
        </mxCell>
        <mxCell id="5VEch0y9utXyetqXmuZe-18" value="" style="endArrow=open;endSize=12;dashed=1;html=1;rounded=0;exitX=0.5;exitY=1;exitDx=0;exitDy=0;entryX=0.75;entryY=0;entryDx=0;entryDy=0;" edge="1" parent="1" source="5VEch0y9utXyetqXmuZe-5" target="5VEch0y9utXyetqXmuZe-3">
          <mxGeometry width="160" relative="1" as="geometry">
            <mxPoint x="360" y="250" as="sourcePoint" />
            <mxPoint x="378" y="330" as="targetPoint" />
          </mxGeometry>
        </mxCell>
        <mxCell id="5VEch0y9utXyetqXmuZe-19" value="" style="endArrow=open;endSize=12;dashed=1;html=1;rounded=0;exitX=0.5;exitY=1;exitDx=0;exitDy=0;entryX=0.25;entryY=0;entryDx=0;entryDy=0;" edge="1" parent="1" source="5VEch0y9utXyetqXmuZe-10" target="5VEch0y9utXyetqXmuZe-3">
          <mxGeometry width="160" relative="1" as="geometry">
            <mxPoint x="425" y="430" as="sourcePoint" />
            <mxPoint x="325" y="510" as="targetPoint" />
          </mxGeometry>
        </mxCell>
        <mxCell id="PyMqxvJtwmutZo8FGUYp-1" value="" style="endArrow=block;dashed=1;endFill=0;endSize=12;html=1;rounded=0;exitX=0;exitY=0.5;exitDx=0;exitDy=0;entryX=1;entryY=0.25;entryDx=0;entryDy=0;" edge="1" parent="1" source="5VEch0y9utXyetqXmuZe-7" target="5VEch0y9utXyetqXmuZe-5">
          <mxGeometry width="160" relative="1" as="geometry">
            <mxPoint x="340" y="290" as="sourcePoint" />
            <mxPoint x="500" y="290" as="targetPoint" />
          </mxGeometry>
        </mxCell>
        <mxCell id="PyMqxvJtwmutZo8FGUYp-2" value="" style="endArrow=block;dashed=1;endFill=0;endSize=12;html=1;rounded=0;exitX=0;exitY=0.5;exitDx=0;exitDy=0;entryX=1.008;entryY=0.674;entryDx=0;entryDy=0;entryPerimeter=0;" edge="1" parent="1" source="5VEch0y9utXyetqXmuZe-8" target="5VEch0y9utXyetqXmuZe-5">
          <mxGeometry width="160" relative="1" as="geometry">
            <mxPoint x="610" y="335" as="sourcePoint" />
            <mxPoint x="520" y="355" as="targetPoint" />
          </mxGeometry>
        </mxCell>
      </root>
    </mxGraphModel>
  </diagram>
  <diagram id="qzua5mDxw2Fld9olKQPw" name="LSP_solve">
    <mxGraphModel dx="1050" dy="557" grid="1" gridSize="10" guides="1" tooltips="1" connect="1" arrows="1" fold="1" page="1" pageScale="1" pageWidth="850" pageHeight="1100" math="0" shadow="0">
      <root>
        <mxCell id="0" />
        <mxCell id="1" parent="0" />
        <mxCell id="hwyyD9p8MI3zybuAoQlc-1" value="&lt;p style=&quot;margin:0px;margin-top:4px;text-align:center;&quot;&gt;&lt;b&gt;CostReport&lt;/b&gt;&lt;/p&gt;&lt;hr size=&quot;1&quot; style=&quot;border-style:solid;&quot;&gt;&lt;p style=&quot;margin:0px;margin-left:4px;&quot;&gt;&lt;span style=&quot;background-color: initial;&quot;&gt;+ print(): Unit&lt;/span&gt;&lt;br&gt;&lt;/p&gt;" style="verticalAlign=top;align=left;overflow=fill;html=1;whiteSpace=wrap;" vertex="1" parent="1">
          <mxGeometry x="230" y="180" width="160" height="60" as="geometry" />
        </mxCell>
        <mxCell id="hwyyD9p8MI3zybuAoQlc-2" value="&lt;p style=&quot;margin:0px;margin-top:4px;text-align:center;&quot;&gt;&lt;b&gt;CostType&lt;/b&gt;&lt;/p&gt;&lt;hr size=&quot;1&quot; style=&quot;border-style:solid;&quot;&gt;&lt;div style=&quot;height:2px;&quot;&gt;&lt;/div&gt;" style="verticalAlign=top;align=left;overflow=fill;html=1;whiteSpace=wrap;" vertex="1" parent="1">
          <mxGeometry x="240" y="410" width="140" height="60" as="geometry" />
        </mxCell>
        <mxCell id="hwyyD9p8MI3zybuAoQlc-4" value="&lt;p style=&quot;margin:0px;margin-top:4px;text-align:center;&quot;&gt;&lt;i&gt;&amp;lt;&amp;lt;Interface&amp;gt;&amp;gt;&lt;/i&gt;&lt;br&gt;&lt;b&gt;Calculator&lt;/b&gt;&lt;/p&gt;&lt;hr size=&quot;1&quot; style=&quot;border-style:solid;&quot;&gt;&lt;p style=&quot;margin:0px;margin-left:4px;&quot;&gt;+ type: CostType&lt;br&gt;&lt;/p&gt;&lt;hr size=&quot;1&quot; style=&quot;border-style:solid;&quot;&gt;&lt;p style=&quot;margin:0px;margin-left:4px;&quot;&gt;+ getCosts(Int): Int&lt;br&gt;&lt;/p&gt;" style="verticalAlign=top;align=left;overflow=fill;html=1;whiteSpace=wrap;" vertex="1" parent="1">
          <mxGeometry x="215" y="281" width="190" height="100" as="geometry" />
        </mxCell>
        <mxCell id="hwyyD9p8MI3zybuAoQlc-6" value="&lt;b&gt;BoardCalculator&lt;/b&gt;" style="html=1;whiteSpace=wrap;" vertex="1" parent="1">
          <mxGeometry x="480" y="306" width="110" height="50" as="geometry" />
        </mxCell>
        <mxCell id="hwyyD9p8MI3zybuAoQlc-8" value="&lt;b&gt;BoardAndTrain&lt;br&gt;Calculator&lt;/b&gt;" style="html=1;whiteSpace=wrap;" vertex="1" parent="1">
          <mxGeometry x="480" y="381" width="110" height="50" as="geometry" />
        </mxCell>
        <mxCell id="hwyyD9p8MI3zybuAoQlc-10" value="&lt;p style=&quot;margin:0px;margin-top:4px;text-align:center;&quot;&gt;&lt;b&gt;DogSize&lt;/b&gt;&lt;/p&gt;&lt;hr size=&quot;1&quot; style=&quot;border-style:solid;&quot;&gt;&lt;div style=&quot;height:2px;&quot;&gt;&lt;/div&gt;" style="verticalAlign=top;align=left;overflow=fill;html=1;whiteSpace=wrap;" vertex="1" parent="1">
          <mxGeometry x="640" y="231" width="140" height="60" as="geometry" />
        </mxCell>
        <mxCell id="hwyyD9p8MI3zybuAoQlc-12" value="&lt;b&gt;Daycare&lt;br&gt;Calculator&lt;/b&gt;" style="html=1;whiteSpace=wrap;" vertex="1" parent="1">
          <mxGeometry x="480" y="231" width="110" height="50" as="geometry" />
        </mxCell>
        <mxCell id="hwyyD9p8MI3zybuAoQlc-14" value="" style="endArrow=open;endSize=12;dashed=1;html=1;rounded=0;exitX=0.5;exitY=1;exitDx=0;exitDy=0;entryX=0.5;entryY=0;entryDx=0;entryDy=0;" edge="1" parent="1" source="hwyyD9p8MI3zybuAoQlc-1" target="hwyyD9p8MI3zybuAoQlc-4">
          <mxGeometry width="160" relative="1" as="geometry">
            <mxPoint x="340" y="290" as="sourcePoint" />
            <mxPoint x="500" y="290" as="targetPoint" />
          </mxGeometry>
        </mxCell>
        <mxCell id="hwyyD9p8MI3zybuAoQlc-15" value="" style="endArrow=open;endSize=12;dashed=1;html=1;rounded=0;exitX=0.5;exitY=1;exitDx=0;exitDy=0;entryX=0.5;entryY=0;entryDx=0;entryDy=0;" edge="1" parent="1" source="hwyyD9p8MI3zybuAoQlc-4" target="hwyyD9p8MI3zybuAoQlc-2">
          <mxGeometry width="160" relative="1" as="geometry">
            <mxPoint x="320" y="250" as="sourcePoint" />
            <mxPoint x="320" y="291" as="targetPoint" />
          </mxGeometry>
        </mxCell>
        <mxCell id="hwyyD9p8MI3zybuAoQlc-16" value="" style="endArrow=open;endSize=12;dashed=1;html=1;rounded=0;exitX=1;exitY=0.5;exitDx=0;exitDy=0;entryX=0;entryY=0.5;entryDx=0;entryDy=0;" edge="1" parent="1" source="hwyyD9p8MI3zybuAoQlc-12" target="hwyyD9p8MI3zybuAoQlc-10">
          <mxGeometry width="160" relative="1" as="geometry">
            <mxPoint x="320" y="250" as="sourcePoint" />
            <mxPoint x="320" y="291" as="targetPoint" />
          </mxGeometry>
        </mxCell>
        <mxCell id="hwyyD9p8MI3zybuAoQlc-18" value="" style="endArrow=block;dashed=1;endFill=0;endSize=12;html=1;rounded=0;exitX=0;exitY=0.5;exitDx=0;exitDy=0;entryX=1;entryY=0.25;entryDx=0;entryDy=0;" edge="1" parent="1" source="hwyyD9p8MI3zybuAoQlc-12" target="hwyyD9p8MI3zybuAoQlc-4">
          <mxGeometry width="160" relative="1" as="geometry">
            <mxPoint x="340" y="290" as="sourcePoint" />
            <mxPoint x="500" y="290" as="targetPoint" />
          </mxGeometry>
        </mxCell>
        <mxCell id="HCuCCp86DF7NvlM2ywLI-1" value="" style="endArrow=block;dashed=1;endFill=0;endSize=12;html=1;rounded=0;exitX=0;exitY=0.5;exitDx=0;exitDy=0;entryX=1;entryY=0.5;entryDx=0;entryDy=0;" edge="1" parent="1" source="hwyyD9p8MI3zybuAoQlc-6" target="hwyyD9p8MI3zybuAoQlc-4">
          <mxGeometry width="160" relative="1" as="geometry">
            <mxPoint x="490" y="266" as="sourcePoint" />
            <mxPoint x="415" y="330" as="targetPoint" />
          </mxGeometry>
        </mxCell>
        <mxCell id="HCuCCp86DF7NvlM2ywLI-3" value="" style="endArrow=block;dashed=1;endFill=0;endSize=12;html=1;rounded=0;exitX=0;exitY=0.5;exitDx=0;exitDy=0;entryX=1;entryY=0.75;entryDx=0;entryDy=0;" edge="1" parent="1" source="hwyyD9p8MI3zybuAoQlc-8" target="hwyyD9p8MI3zybuAoQlc-4">
          <mxGeometry width="160" relative="1" as="geometry">
            <mxPoint x="500" y="276" as="sourcePoint" />
            <mxPoint x="425" y="340" as="targetPoint" />
          </mxGeometry>
        </mxCell>
      </root>
    </mxGraphModel>
  </diagram>
  <diagram id="rtf-ERAIFcNyqn8nXFiv" name="ISP_violate">
    <mxGraphModel dx="1050" dy="557" grid="1" gridSize="10" guides="1" tooltips="1" connect="1" arrows="1" fold="1" page="1" pageScale="1" pageWidth="850" pageHeight="1100" math="0" shadow="0">
      <root>
        <mxCell id="0" />
        <mxCell id="1" parent="0" />
        <mxCell id="0--xJ9GTkC2JXlz3T77B-1" value="&lt;p style=&quot;margin:0px;margin-top:4px;text-align:center;&quot;&gt;&lt;i&gt;&amp;lt;&amp;lt;Interface&amp;gt;&amp;gt;&lt;/i&gt;&lt;br&gt;&lt;b&gt;DaycareActivities&lt;/b&gt;&lt;/p&gt;&lt;hr size=&quot;1&quot; style=&quot;border-style:solid;&quot;&gt;&lt;p style=&quot;margin:0px;margin-left:4px;&quot;&gt;+ feed(): Unit&lt;br&gt;+ play(): Unit&lt;br&gt;+ train(): Unit&lt;/p&gt;" style="verticalAlign=top;align=left;overflow=fill;html=1;whiteSpace=wrap;" vertex="1" parent="1">
          <mxGeometry x="200" y="270" width="190" height="100" as="geometry" />
        </mxCell>
        <mxCell id="0--xJ9GTkC2JXlz3T77B-3" value="&lt;b&gt;Daycare&lt;br&gt;ActivitiesImpl&lt;/b&gt;" style="html=1;whiteSpace=wrap;" vertex="1" parent="1">
          <mxGeometry x="240" y="410" width="110" height="50" as="geometry" />
        </mxCell>
        <mxCell id="0--xJ9GTkC2JXlz3T77B-5" value="&lt;p style=&quot;margin:0px;margin-top:4px;text-align:center;&quot;&gt;&lt;b&gt;Trainer&lt;/b&gt;&lt;/p&gt;&lt;hr size=&quot;1&quot; style=&quot;border-style:solid;&quot;&gt;&lt;p style=&quot;margin:0px;margin-left:4px;&quot;&gt;+ recordActivity(): Unit&lt;/p&gt;" style="verticalAlign=top;align=left;overflow=fill;html=1;whiteSpace=wrap;" vertex="1" parent="1">
          <mxGeometry x="390" y="140" width="160" height="60" as="geometry" />
        </mxCell>
        <mxCell id="0--xJ9GTkC2JXlz3T77B-7" value="&lt;p style=&quot;margin:0px;margin-top:4px;text-align:center;&quot;&gt;&lt;b&gt;PlayingPerson&lt;/b&gt;&lt;/p&gt;&lt;hr size=&quot;1&quot; style=&quot;border-style:solid;&quot;&gt;&lt;p style=&quot;margin:0px;margin-left:4px;&quot;&gt;+ recordActivity(): Unit&lt;/p&gt;" style="verticalAlign=top;align=left;overflow=fill;html=1;whiteSpace=wrap;" vertex="1" parent="1">
          <mxGeometry x="215" y="140" width="160" height="60" as="geometry" />
        </mxCell>
        <mxCell id="0--xJ9GTkC2JXlz3T77B-9" value="&lt;p style=&quot;margin:0px;margin-top:4px;text-align:center;&quot;&gt;&lt;b&gt;FeedinPerson&lt;/b&gt;&lt;/p&gt;&lt;hr size=&quot;1&quot; style=&quot;border-style:solid;&quot;&gt;&lt;p style=&quot;margin:0px;margin-left:4px;&quot;&gt;+ recordActivity(): Unit&lt;/p&gt;" style="verticalAlign=top;align=left;overflow=fill;html=1;whiteSpace=wrap;" vertex="1" parent="1">
          <mxGeometry x="40" y="140" width="160" height="60" as="geometry" />
        </mxCell>
        <mxCell id="0--xJ9GTkC2JXlz3T77B-12" value="" style="endArrow=block;dashed=1;endFill=0;endSize=12;html=1;rounded=0;exitX=0.5;exitY=0;exitDx=0;exitDy=0;entryX=0.5;entryY=1;entryDx=0;entryDy=0;" edge="1" parent="1" source="0--xJ9GTkC2JXlz3T77B-3" target="0--xJ9GTkC2JXlz3T77B-1">
          <mxGeometry width="160" relative="1" as="geometry">
            <mxPoint x="305" y="210" as="sourcePoint" />
            <mxPoint x="305" y="280" as="targetPoint" />
          </mxGeometry>
        </mxCell>
        <mxCell id="KUveSoMJbT838JXkwtHR-1" value="" style="endArrow=open;endSize=12;dashed=1;html=1;rounded=0;exitX=0.5;exitY=1;exitDx=0;exitDy=0;entryX=0.25;entryY=0;entryDx=0;entryDy=0;" edge="1" parent="1" source="0--xJ9GTkC2JXlz3T77B-9" target="0--xJ9GTkC2JXlz3T77B-1">
          <mxGeometry width="160" relative="1" as="geometry">
            <mxPoint x="340" y="290" as="sourcePoint" />
            <mxPoint x="500" y="290" as="targetPoint" />
          </mxGeometry>
        </mxCell>
        <mxCell id="KUveSoMJbT838JXkwtHR-3" value="" style="endArrow=open;endSize=12;dashed=1;html=1;rounded=0;exitX=0.5;exitY=1;exitDx=0;exitDy=0;entryX=0.5;entryY=0;entryDx=0;entryDy=0;" edge="1" parent="1" source="0--xJ9GTkC2JXlz3T77B-7" target="0--xJ9GTkC2JXlz3T77B-1">
          <mxGeometry width="160" relative="1" as="geometry">
            <mxPoint x="130" y="210" as="sourcePoint" />
            <mxPoint x="258" y="280" as="targetPoint" />
          </mxGeometry>
        </mxCell>
        <mxCell id="KUveSoMJbT838JXkwtHR-4" value="" style="endArrow=open;endSize=12;dashed=1;html=1;rounded=0;exitX=0.5;exitY=1;exitDx=0;exitDy=0;entryX=0.75;entryY=0;entryDx=0;entryDy=0;" edge="1" parent="1" source="0--xJ9GTkC2JXlz3T77B-5" target="0--xJ9GTkC2JXlz3T77B-1">
          <mxGeometry width="160" relative="1" as="geometry">
            <mxPoint x="305" y="210" as="sourcePoint" />
            <mxPoint x="500" y="310" as="targetPoint" />
          </mxGeometry>
        </mxCell>
      </root>
    </mxGraphModel>
  </diagram>
  <diagram id="Xey7xZsN6GCEclLKvSLB" name="ISP_solve">
    <mxGraphModel dx="1050" dy="557" grid="1" gridSize="10" guides="1" tooltips="1" connect="1" arrows="1" fold="1" page="1" pageScale="1" pageWidth="850" pageHeight="1100" math="0" shadow="0">
      <root>
        <mxCell id="0" />
        <mxCell id="1" parent="0" />
        <mxCell id="m7UEVtZ2UfTR0A_-2M8o-1" value="&lt;p style=&quot;margin:0px;margin-top:4px;text-align:center;&quot;&gt;&lt;i&gt;&amp;lt;&amp;lt;Interface&amp;gt;&amp;gt;&lt;/i&gt;&lt;br&gt;&lt;b&gt;FeedingDaycareActivities&lt;/b&gt;&lt;/p&gt;&lt;hr size=&quot;1&quot; style=&quot;border-style:solid;&quot;&gt;&lt;p style=&quot;margin:0px;margin-left:4px;&quot;&gt;+ feed(): Unit&lt;br&gt;&lt;/p&gt;" style="verticalAlign=top;align=left;overflow=fill;html=1;whiteSpace=wrap;" vertex="1" parent="1">
          <mxGeometry x="40" y="240" width="190" height="70" as="geometry" />
        </mxCell>
        <mxCell id="m7UEVtZ2UfTR0A_-2M8o-3" value="&lt;b&gt;FeedingDaycare&lt;br&gt;ActivitiesImpl&lt;/b&gt;" style="html=1;whiteSpace=wrap;" vertex="1" parent="1">
          <mxGeometry x="80" y="350" width="110" height="50" as="geometry" />
        </mxCell>
        <mxCell id="m7UEVtZ2UfTR0A_-2M8o-5" value="&lt;p style=&quot;margin:0px;margin-top:4px;text-align:center;&quot;&gt;&lt;b&gt;Trainer&lt;/b&gt;&lt;/p&gt;&lt;hr size=&quot;1&quot; style=&quot;border-style:solid;&quot;&gt;&lt;p style=&quot;margin:0px;margin-left:4px;&quot;&gt;+ recordActivity(): Unit&lt;/p&gt;" style="verticalAlign=top;align=left;overflow=fill;html=1;whiteSpace=wrap;" vertex="1" parent="1">
          <mxGeometry x="475" y="140" width="160" height="60" as="geometry" />
        </mxCell>
        <mxCell id="m7UEVtZ2UfTR0A_-2M8o-7" value="&lt;p style=&quot;margin:0px;margin-top:4px;text-align:center;&quot;&gt;&lt;b&gt;PlayingPerson&lt;/b&gt;&lt;/p&gt;&lt;hr size=&quot;1&quot; style=&quot;border-style:solid;&quot;&gt;&lt;p style=&quot;margin:0px;margin-left:4px;&quot;&gt;+ recordActivity(): Unit&lt;/p&gt;" style="verticalAlign=top;align=left;overflow=fill;html=1;whiteSpace=wrap;" vertex="1" parent="1">
          <mxGeometry x="265" y="140" width="160" height="60" as="geometry" />
        </mxCell>
        <mxCell id="m7UEVtZ2UfTR0A_-2M8o-9" value="&lt;p style=&quot;margin:0px;margin-top:4px;text-align:center;&quot;&gt;&lt;b&gt;FeedingPerson&lt;/b&gt;&lt;/p&gt;&lt;hr size=&quot;1&quot; style=&quot;border-style:solid;&quot;&gt;&lt;p style=&quot;margin:0px;margin-left:4px;&quot;&gt;+ recordActivity(): Unit&lt;/p&gt;" style="verticalAlign=top;align=left;overflow=fill;html=1;whiteSpace=wrap;" vertex="1" parent="1">
          <mxGeometry x="55" y="140" width="160" height="60" as="geometry" />
        </mxCell>
        <mxCell id="m7UEVtZ2UfTR0A_-2M8o-10" value="&lt;p style=&quot;margin:0px;margin-top:4px;text-align:center;&quot;&gt;&lt;i&gt;&amp;lt;&amp;lt;Interface&amp;gt;&amp;gt;&lt;/i&gt;&lt;br&gt;&lt;b&gt;TrainingDaycareActivities&lt;/b&gt;&lt;/p&gt;&lt;hr size=&quot;1&quot; style=&quot;border-style:solid;&quot;&gt;&lt;p style=&quot;margin:0px;margin-left:4px;&quot;&gt;+ train(): Unit&lt;br&gt;&lt;/p&gt;" style="verticalAlign=top;align=left;overflow=fill;html=1;whiteSpace=wrap;" vertex="1" parent="1">
          <mxGeometry x="460" y="240" width="190" height="70" as="geometry" />
        </mxCell>
        <mxCell id="m7UEVtZ2UfTR0A_-2M8o-12" value="&lt;b&gt;TrainingDaycare&lt;br&gt;ActivitiesImpl&lt;/b&gt;" style="html=1;whiteSpace=wrap;" vertex="1" parent="1">
          <mxGeometry x="500" y="350" width="110" height="50" as="geometry" />
        </mxCell>
        <mxCell id="m7UEVtZ2UfTR0A_-2M8o-13" value="&lt;p style=&quot;margin:0px;margin-top:4px;text-align:center;&quot;&gt;&lt;i&gt;&amp;lt;&amp;lt;Interface&amp;gt;&amp;gt;&lt;/i&gt;&lt;br&gt;&lt;b&gt;PlayingDaycareActivities&lt;/b&gt;&lt;/p&gt;&lt;hr size=&quot;1&quot; style=&quot;border-style:solid;&quot;&gt;&lt;p style=&quot;margin:0px;margin-left:4px;&quot;&gt;+ play(): Unit&lt;br&gt;&lt;/p&gt;" style="verticalAlign=top;align=left;overflow=fill;html=1;whiteSpace=wrap;" vertex="1" parent="1">
          <mxGeometry x="250" y="240" width="190" height="70" as="geometry" />
        </mxCell>
        <mxCell id="m7UEVtZ2UfTR0A_-2M8o-15" value="&lt;b&gt;PlayingDaycare&lt;br&gt;ActivitiesImpl&lt;/b&gt;" style="html=1;whiteSpace=wrap;" vertex="1" parent="1">
          <mxGeometry x="290" y="350" width="110" height="50" as="geometry" />
        </mxCell>
        <mxCell id="m7UEVtZ2UfTR0A_-2M8o-16" value="" style="endArrow=block;dashed=1;endFill=0;endSize=12;html=1;rounded=0;exitX=0.5;exitY=0;exitDx=0;exitDy=0;" edge="1" parent="1" source="m7UEVtZ2UfTR0A_-2M8o-3" target="m7UEVtZ2UfTR0A_-2M8o-1">
          <mxGeometry width="160" relative="1" as="geometry">
            <mxPoint x="340" y="290" as="sourcePoint" />
            <mxPoint x="500" y="290" as="targetPoint" />
          </mxGeometry>
        </mxCell>
        <mxCell id="m7UEVtZ2UfTR0A_-2M8o-17" value="" style="endArrow=block;dashed=1;endFill=0;endSize=12;html=1;rounded=0;exitX=0.5;exitY=0;exitDx=0;exitDy=0;entryX=0.5;entryY=1;entryDx=0;entryDy=0;" edge="1" parent="1" source="m7UEVtZ2UfTR0A_-2M8o-15" target="m7UEVtZ2UfTR0A_-2M8o-13">
          <mxGeometry width="160" relative="1" as="geometry">
            <mxPoint x="145" y="360" as="sourcePoint" />
            <mxPoint x="145" y="320" as="targetPoint" />
          </mxGeometry>
        </mxCell>
        <mxCell id="m7UEVtZ2UfTR0A_-2M8o-18" value="" style="endArrow=block;dashed=1;endFill=0;endSize=12;html=1;rounded=0;exitX=0.5;exitY=0;exitDx=0;exitDy=0;" edge="1" parent="1" source="m7UEVtZ2UfTR0A_-2M8o-12" target="m7UEVtZ2UfTR0A_-2M8o-10">
          <mxGeometry width="160" relative="1" as="geometry">
            <mxPoint x="355" y="360" as="sourcePoint" />
            <mxPoint x="355" y="320" as="targetPoint" />
          </mxGeometry>
        </mxCell>
        <mxCell id="m7UEVtZ2UfTR0A_-2M8o-19" value="" style="endArrow=open;endSize=12;dashed=1;html=1;rounded=0;exitX=0.5;exitY=1;exitDx=0;exitDy=0;" edge="1" parent="1" source="m7UEVtZ2UfTR0A_-2M8o-9" target="m7UEVtZ2UfTR0A_-2M8o-1">
          <mxGeometry width="160" relative="1" as="geometry">
            <mxPoint x="340" y="290" as="sourcePoint" />
            <mxPoint x="500" y="290" as="targetPoint" />
          </mxGeometry>
        </mxCell>
        <mxCell id="m7UEVtZ2UfTR0A_-2M8o-20" value="" style="endArrow=open;endSize=12;dashed=1;html=1;rounded=0;exitX=0.5;exitY=1;exitDx=0;exitDy=0;entryX=0.5;entryY=0;entryDx=0;entryDy=0;" edge="1" parent="1" source="m7UEVtZ2UfTR0A_-2M8o-7" target="m7UEVtZ2UfTR0A_-2M8o-13">
          <mxGeometry width="160" relative="1" as="geometry">
            <mxPoint x="145" y="210" as="sourcePoint" />
            <mxPoint x="145" y="250" as="targetPoint" />
          </mxGeometry>
        </mxCell>
        <mxCell id="m7UEVtZ2UfTR0A_-2M8o-21" value="" style="endArrow=open;endSize=12;dashed=1;html=1;rounded=0;exitX=0.5;exitY=1;exitDx=0;exitDy=0;entryX=0.5;entryY=0;entryDx=0;entryDy=0;" edge="1" parent="1" source="m7UEVtZ2UfTR0A_-2M8o-5" target="m7UEVtZ2UfTR0A_-2M8o-10">
          <mxGeometry width="160" relative="1" as="geometry">
            <mxPoint x="355" y="210" as="sourcePoint" />
            <mxPoint x="355" y="250" as="targetPoint" />
          </mxGeometry>
        </mxCell>
      </root>
    </mxGraphModel>
  </diagram>
  <diagram id="WeMcv0eX3Icoi5W5UMIA" name="DIP_violate">
    <mxGraphModel dx="1050" dy="557" grid="1" gridSize="10" guides="1" tooltips="1" connect="1" arrows="1" fold="1" page="1" pageScale="1" pageWidth="850" pageHeight="1100" math="0" shadow="0">
      <root>
        <mxCell id="0" />
        <mxCell id="1" parent="0" />
        <mxCell id="AL8MK5uvLPCO8IS1NsFP-1" value="&lt;p style=&quot;margin:0px;margin-top:4px;text-align:center;&quot;&gt;&lt;b&gt;DailyReport&lt;/b&gt;&lt;/p&gt;&lt;hr size=&quot;1&quot; style=&quot;border-style:solid;&quot;&gt;&lt;p style=&quot;margin:0px;margin-left:4px;&quot;&gt;+ text: String&lt;/p&gt;&lt;hr size=&quot;1&quot; style=&quot;border-style:solid;&quot;&gt;&lt;p style=&quot;margin:0px;margin-left:4px;&quot;&gt;+ getAction(): String&lt;br&gt;+ setAction(Int): Unit&lt;/p&gt;" style="verticalAlign=top;align=left;overflow=fill;html=1;whiteSpace=wrap;" vertex="1" parent="1">
          <mxGeometry x="340" y="290" width="160" height="100" as="geometry" />
        </mxCell>
        <mxCell id="AL8MK5uvLPCO8IS1NsFP-3" value="&lt;p style=&quot;margin:0px;margin-top:4px;text-align:center;&quot;&gt;&lt;b&gt;PrintReport&lt;/b&gt;&lt;/p&gt;&lt;hr size=&quot;1&quot; style=&quot;border-style:solid;&quot;&gt;&lt;p style=&quot;margin:0px;margin-left:4px;&quot;&gt;+ print(): Unit&lt;br&gt;&lt;/p&gt;" style="verticalAlign=top;align=left;overflow=fill;html=1;whiteSpace=wrap;" vertex="1" parent="1">
          <mxGeometry x="340" y="160" width="160" height="60" as="geometry" />
        </mxCell>
        <mxCell id="AL8MK5uvLPCO8IS1NsFP-4" value="" style="endArrow=open;endSize=12;dashed=1;html=1;rounded=0;exitX=0.5;exitY=1;exitDx=0;exitDy=0;" edge="1" parent="1" source="AL8MK5uvLPCO8IS1NsFP-3" target="AL8MK5uvLPCO8IS1NsFP-1">
          <mxGeometry width="160" relative="1" as="geometry">
            <mxPoint x="340" y="290" as="sourcePoint" />
            <mxPoint x="500" y="290" as="targetPoint" />
          </mxGeometry>
        </mxCell>
      </root>
    </mxGraphModel>
  </diagram>
  <diagram id="4d-NCtPe_4C7ik0n7y_W" name="DIP_solve">
    <mxGraphModel dx="1050" dy="557" grid="1" gridSize="10" guides="1" tooltips="1" connect="1" arrows="1" fold="1" page="1" pageScale="1" pageWidth="850" pageHeight="1100" math="0" shadow="0">
      <root>
        <mxCell id="0" />
        <mxCell id="1" parent="0" />
        <mxCell id="TP5piGBplh7lSCxnidfk-2" value="&lt;p style=&quot;margin:0px;margin-top:4px;text-align:center;&quot;&gt;&lt;b&gt;PrintReport&lt;/b&gt;&lt;/p&gt;&lt;hr size=&quot;1&quot; style=&quot;border-style:solid;&quot;&gt;&lt;p style=&quot;margin:0px;margin-left:4px;&quot;&gt;+ print(): Unit&lt;br&gt;&lt;/p&gt;" style="verticalAlign=top;align=left;overflow=fill;html=1;whiteSpace=wrap;" vertex="1" parent="1">
          <mxGeometry x="375" y="160" width="160" height="60" as="geometry" />
        </mxCell>
        <mxCell id="TP5piGBplh7lSCxnidfk-3" value="&lt;p style=&quot;margin:0px;margin-top:4px;text-align:center;&quot;&gt;&lt;i&gt;&amp;lt;&amp;lt;Interface&amp;gt;&amp;gt;&lt;/i&gt;&lt;br&gt;&lt;b&gt;ReportService&lt;/b&gt;&lt;/p&gt;&lt;hr size=&quot;1&quot; style=&quot;border-style:solid;&quot;&gt;&lt;p style=&quot;margin:0px;margin-left:4px;&quot;&gt;+ text: String&lt;br&gt;&lt;/p&gt;&lt;hr size=&quot;1&quot; style=&quot;border-style:solid;&quot;&gt;&lt;p style=&quot;margin:0px;margin-left:4px;&quot;&gt;+ getAction(): String&lt;br&gt;+ setAction(Int): Unit&lt;/p&gt;" style="verticalAlign=top;align=left;overflow=fill;html=1;whiteSpace=wrap;" vertex="1" parent="1">
          <mxGeometry x="360" y="270" width="190" height="110" as="geometry" />
        </mxCell>
        <mxCell id="TP5piGBplh7lSCxnidfk-5" value="DailyReport" style="html=1;whiteSpace=wrap;fontStyle=1" vertex="1" parent="1">
          <mxGeometry x="400" y="430" width="110" height="50" as="geometry" />
        </mxCell>
        <mxCell id="TP5piGBplh7lSCxnidfk-6" value="" style="endArrow=block;dashed=1;endFill=0;endSize=12;html=1;rounded=0;exitX=0.5;exitY=0;exitDx=0;exitDy=0;" edge="1" parent="1" source="TP5piGBplh7lSCxnidfk-5" target="TP5piGBplh7lSCxnidfk-3">
          <mxGeometry width="160" relative="1" as="geometry">
            <mxPoint x="340" y="290" as="sourcePoint" />
            <mxPoint x="500" y="290" as="targetPoint" />
          </mxGeometry>
        </mxCell>
        <mxCell id="TP5piGBplh7lSCxnidfk-7" value="" style="endArrow=open;endSize=12;dashed=1;html=1;rounded=0;exitX=0.5;exitY=1;exitDx=0;exitDy=0;" edge="1" parent="1" source="TP5piGBplh7lSCxnidfk-2" target="TP5piGBplh7lSCxnidfk-3">
          <mxGeometry width="160" relative="1" as="geometry">
            <mxPoint x="340" y="290" as="sourcePoint" />
            <mxPoint x="500" y="290" as="targetPoint" />
          </mxGeometry>
        </mxCell>
      </root>
    </mxGraphModel>
  </diagram>
</mxfile>
